<?xml version="1.0" standalone="no"?>
<!DOCTYPE svg PUBLIC "-//W3C//DTD SVG 20010904//EN"
 "http://www.w3.org/TR/2001/REC-SVG-20010904/DTD/svg10.dtd">
<svg version="1.0" xmlns="http://www.w3.org/2000/svg"
 width="504.000000pt" height="504.000000pt" viewBox="0 0 504.000000 504.000000"
 preserveAspectRatio="xMidYMid meet">
<metadata>
Created by potrace 1.14, written by Peter Selinger 2001-2017
</metadata>
<g transform="translate(0.000000,504.000000) scale(0.100000,-0.100000)"
fill="#000000" stroke="none">
<path d="M570 5028 c-25 -4 -52 -11 -60 -15 -8 -3 -18 -7 -22 -7 -3 -1 -10 -4
-14 -8 -4 -5 -16 -8 -26 -8 -10 0 -18 -4 -18 -9 0 -5 -10 -13 -22 -17 -21 -6
-98 -76 -98 -89 0 -3 -9 -16 -20 -28 -11 -12 -18 -27 -16 -33 3 -7 -2 -15 -11
-18 -9 -4 -13 -9 -10 -13 4 -3 2 -12 -4 -20 -6 -7 -9 -13 -6 -13 4 0 0 -17 -7
-37 -11 -32 -14 -175 -6 -253 8 -68 71 -245 95 -262 6 -4 6 -8 2 -8 -10 0 72
-154 84 -158 5 -2 9 -10 9 -17 0 -7 9 -24 20 -37 11 -12 37 -46 57 -74 55 -74
119 -144 127 -137 3 4 6 0 6 -8 0 -21 84 -101 96 -92 5 5 6 4 2 -1 -4 -5 2
-18 15 -28 12 -11 34 -30 49 -44 15 -13 33 -24 39 -24 5 0 7 -4 4 -10 -3 -5 1
-10 9 -10 9 0 16 -3 16 -8 0 -7 131 -109 147 -115 4 -1 18 -12 31 -24 14 -13
30 -20 36 -16 6 3 8 3 4 -2 -8 -8 53 -55 71 -55 6 0 11 -4 11 -10 0 -5 7 -10
15 -10 8 0 15 -4 15 -8 0 -4 14 -16 30 -25 17 -10 30 -16 30 -13 0 3 8 -1 18
-10 24 -22 181 -121 215 -136 15 -7 27 -16 27 -20 0 -4 7 -8 15 -8 8 0 15 -4
15 -10 0 -5 5 -10 10 -10 6 0 28 -11 49 -24 21 -14 42 -22 45 -19 3 4 6 2 6
-4 0 -10 22 -20 65 -29 10 -3 113 -100 227 -216 114 -117 208 -209 208 -205 0
4 17 -9 38 -30 60 -60 112 -104 112 -96 0 9 20 -19 20 -28 0 -4 -11 -6 -25 -5
-14 0 -25 4 -25 9 0 4 -8 7 -18 7 -10 0 -22 3 -25 7 -13 12 -150 52 -160 46
-6 -3 -7 -1 -4 4 4 6 -7 16 -23 23 -17 7 -30 16 -30 20 0 10 -200 113 -200
103 0 -4 -4 -3 -8 3 -7 10 -79 42 -112 49 -24 6 -83 27 -103 37 -10 5 -22 6
-27 3 -6 -4 -10 -2 -10 2 0 7 -153 50 -210 59 -8 1 -26 5 -40 8 -23 5 -68 13
-135 23 -86 12 -306 11 -380 -2 -125 -23 -161 -31 -177 -41 -7 -5 -19 -9 -28
-10 -24 -2 -104 -37 -112 -48 -4 -6 -8 -8 -8 -3 0 12 -101 -46 -137 -79 -18
-17 -33 -29 -33 -26 0 3 -12 -8 -27 -24 -15 -16 -26 -32 -25 -37 1 -4 -2 -6
-7 -5 -12 4 -72 -72 -65 -83 3 -5 1 -9 -4 -9 -9 0 -42 -70 -59 -125 -15 -47
-16 -134 -2 -169 21 -52 59 -107 69 -101 6 3 10 0 10 -7 0 -14 107 -74 150
-84 103 -23 196 -23 310 0 47 10 87 21 90 24 3 4 16 9 30 11 14 1 27 7 30 12
3 5 15 10 25 12 11 1 27 7 35 12 8 5 18 10 21 10 10 0 84 40 90 48 3 5 8 8 10
6 9 -5 49 13 49 23 0 6 3 8 7 5 3 -4 21 5 40 19 18 14 33 23 33 20 0 -2 46 19
103 48 120 62 252 112 322 121 90 12 173 22 250 30 33 3 71 8 85 11 14 2 41 7
60 9 19 2 65 13 101 25 l67 20 113 -38 c63 -21 121 -41 129 -43 8 -2 17 -6 20
-9 7 -7 73 -32 88 -33 6 0 12 -4 12 -8 0 -4 10 -11 23 -15 20 -6 145 -89 157
-104 8 -10 110 -81 110 -76 0 2 14 -9 31 -25 17 -16 37 -29 44 -29 7 0 15 -4
17 -8 4 -12 188 -133 188 -124 0 4 5 -1 11 -10 5 -10 14 -18 19 -18 5 0 28
-13 52 -29 73 -49 123 -78 132 -79 5 0 12 -5 15 -10 8 -13 171 -124 171 -116
0 3 9 -4 20 -17 10 -13 19 -21 20 -17 0 4 10 -3 23 -15 13 -12 56 -47 97 -77
86 -65 200 -158 218 -180 12 -13 13 -13 6 0 -5 12 -4 12 6 3 29 -27 2 -30 -67
-7 -39 13 -79 25 -90 27 -10 2 -25 7 -33 10 -8 3 -28 9 -45 13 -16 4 -34 8
-40 10 -5 1 -32 7 -59 13 -29 7 -67 27 -94 49 -25 20 -42 30 -37 22 4 -8 -2
-5 -14 8 -12 12 -26 20 -32 17 -5 -4 -9 -2 -9 3 0 12 -161 92 -185 92 -9 0
-14 4 -11 9 3 5 -4 11 -17 14 -12 3 -74 23 -137 46 -63 23 -117 42 -120 43 -3
0 -9 2 -15 4 -5 2 -64 17 -130 33 -131 32 -192 44 -295 56 -19 2 -35 5 -35 5
0 5 -124 13 -210 13 -107 0 -174 -6 -270 -23 -33 -7 -66 -12 -72 -12 -7 -1
-13 -4 -13 -7 0 -3 -14 -7 -32 -8 -17 -1 -35 -7 -38 -14 -4 -6 -9 -10 -11 -9
-28 15 -339 -142 -339 -171 0 -5 -6 -8 -12 -6 -7 1 -12 -4 -11 -10 2 -7 -3
-12 -10 -10 -6 1 -11 -4 -10 -10 2 -7 0 -12 -5 -10 -4 1 -21 -10 -37 -25 -16
-16 -27 -28 -23 -28 4 0 -8 -16 -27 -36 -19 -20 -35 -40 -35 -45 0 -20 -2 -24
-16 -32 -8 -4 -14 -13 -14 -20 0 -7 -7 -25 -15 -41 -47 -89 -53 -222 -15 -301
26 -55 85 -125 105 -125 7 0 18 -7 25 -15 7 -8 16 -12 21 -9 5 3 9 1 9 -4 0
-9 44 -31 71 -35 8 -2 19 -6 25 -10 31 -19 206 -26 294 -12 25 4 54 8 65 10
29 4 159 47 165 54 3 3 14 7 25 9 28 5 208 93 217 106 4 6 8 7 8 3 0 -5 13 1
29 12 16 12 33 21 39 21 5 0 15 7 22 15 6 8 15 14 18 13 11 -3 96 43 104 56 4
6 8 8 8 4 0 -4 31 8 69 27 38 19 74 35 80 35 6 0 11 5 11 11 0 5 5 7 10 4 6
-3 10 -2 10 2 0 5 8 9 18 10 9 1 44 11 77 23 68 25 82 28 147 35 26 2 61 7 78
10 17 3 54 8 83 10 28 3 70 8 92 10 22 3 63 7 92 9 52 4 154 23 183 34 8 3 18
4 23 4 4 -1 26 7 48 19 24 12 48 17 57 14 10 -4 26 -9 37 -10 42 -7 191 -48
202 -57 7 -5 17 -7 23 -3 5 3 10 1 10 -6 0 -7 3 -10 6 -6 4 3 19 0 34 -8 15
-8 30 -11 34 -8 3 4 6 1 6 -6 0 -7 6 -11 14 -8 8 3 20 -1 26 -9 7 -8 16 -14
21 -14 34 0 131 -61 190 -119 38 -37 71 -65 74 -63 3 3 5 1 5 -5 0 -14 77 -93
84 -86 3 4 6 1 6 -6 0 -17 26 -42 35 -33 5 4 5 2 2 -4 -3 -5 19 -36 49 -68 30
-32 54 -60 54 -62 0 -4 27 -36 65 -78 6 -6 28 -35 50 -64 21 -28 43 -52 47
-52 4 0 8 -5 8 -11 0 -17 47 -69 55 -61 5 4 5 1 1 -5 -4 -8 3 -23 18 -38 14
-14 23 -25 20 -25 -5 0 8 -17 38 -50 9 -10 14 -20 12 -23 -2 -2 9 -21 26 -42
16 -21 30 -41 30 -44 0 -4 9 -17 20 -29 12 -12 18 -22 15 -22 -4 0 0 -7 7 -15
31 -34 38 -45 31 -45 -4 0 -3 -4 2 -8 6 -4 22 -28 35 -54 14 -27 29 -48 33
-48 5 0 5 -5 2 -10 -3 -5 -1 -10 4 -10 6 0 11 -6 11 -14 0 -24 25 -37 43 -23
14 11 14 16 2 52 -8 22 -21 44 -28 50 -8 5 -14 14 -15 18 -3 22 -188 309 -204
315 -4 2 -8 10 -8 18 0 8 -7 17 -15 20 -8 4 -15 11 -15 16 0 12 -56 87 -79
106 -9 7 -15 16 -14 20 3 10 -88 122 -99 122 -4 0 -8 6 -8 13 0 7 -29 43 -64
80 -35 37 -61 67 -58 67 4 0 -10 15 -30 34 -20 19 -34 37 -30 40 3 3 -2 6 -12
6 -9 0 -15 3 -13 7 5 10 -30 43 -37 35 -3 -3 -6 0 -6 8 0 18 -155 171 -165
162 -5 -4 -5 -2 -1 5 3 6 2 14 -4 18 -9 6 -36 83 -46 134 -3 14 6 46 21 78 15
30 28 59 29 66 2 7 6 19 9 27 16 37 55 160 51 160 -2 0 2 12 10 28 8 15 16 41
19 57 3 17 12 49 21 73 8 23 13 42 9 42 -3 0 0 7 7 15 6 8 9 19 5 25 -3 5 -2
10 3 10 5 0 12 14 16 31 3 17 17 53 31 80 13 27 21 49 17 49 -4 0 1 5 11 11 9
6 15 14 12 20 -4 5 -1 9 4 9 6 0 11 4 11 10 0 5 8 19 18 30 9 11 15 22 12 23
-2 1 6 13 19 27 60 65 159 195 154 202 -2 5 -1 7 4 6 4 -2 10 1 13 7 3 5 16
21 30 36 33 34 65 72 68 81 2 4 15 20 31 36 42 46 131 179 124 186 -3 3 -2 6
3 6 13 0 55 75 47 84 -3 3 -1 6 5 6 7 0 12 6 12 14 0 8 4 16 10 18 5 1 11 12
13 23 2 11 10 36 19 55 8 19 18 49 22 65 4 17 10 39 13 50 12 45 11 203 -1
250 -18 70 -36 115 -48 115 -5 0 -7 4 -3 9 3 6 -3 14 -12 20 -10 6 -15 11 -11
11 25 1 -89 88 -127 97 -5 1 -27 6 -48 12 -20 5 -65 7 -100 4 -34 -2 -69 -5
-77 -5 -8 0 -21 -5 -27 -11 -7 -5 -13 -7 -13 -3 0 3 -15 0 -34 -8 -19 -8 -37
-12 -40 -9 -3 3 -8 -2 -12 -11 -3 -9 -10 -14 -14 -11 -8 5 -116 -54 -148 -79
-74 -60 -206 -208 -195 -219 3 -4 1 -7 -4 -7 -11 0 -71 -90 -76 -113 -1 -7 -4
-14 -7 -17 -37 -37 -116 -257 -145 -405 -26 -132 -26 -550 0 -725 3 -19 7 -53
10 -75 3 -22 8 -49 12 -60 3 -11 7 -31 8 -45 2 -14 13 -63 25 -110 12 -47 23
-89 24 -95 4 -19 17 -60 26 -80 5 -11 16 -39 26 -62 10 -24 22 -43 27 -43 4 0
5 -5 1 -11 -3 -6 -2 -14 4 -18 15 -9 25 -71 12 -71 -6 0 -21 11 -34 25 -13 14
-25 25 -28 25 -3 0 -29 22 -58 50 -30 27 -56 47 -58 46 -2 -2 -19 11 -38 30
-19 19 -34 32 -34 29 0 -3 -11 4 -24 17 -30 28 -73 59 -82 58 -3 -1 -13 7 -22
17 -24 27 -157 119 -147 102 5 -8 -5 -1 -22 15 -17 16 -32 27 -35 25 -2 -2
-17 8 -33 24 -16 15 -33 27 -37 27 -5 0 -10 0 -13 0 -2 0 -17 12 -31 25 -15
14 -33 25 -40 25 -8 0 -14 4 -14 9 0 5 -13 14 -30 21 -16 7 -30 16 -30 21 0 5
-6 9 -14 9 -8 0 -38 27 -67 61 -30 33 -62 69 -71 80 -10 10 -16 19 -14 19 3 0
-15 30 -40 66 -29 44 -41 71 -35 78 23 27 29 175 16 401 -16 306 -11 377 40
555 9 30 17 62 19 71 2 8 11 32 20 52 8 20 13 37 10 37 -2 0 2 14 11 30 9 17
13 30 9 30 -4 0 -1 6 5 13 6 8 12 22 14 33 2 10 9 33 16 49 31 76 82 265 75
277 -3 4 -1 8 3 8 5 0 9 8 10 18 1 9 5 31 8 47 4 17 9 84 12 150 5 120 -8 219
-38 290 -7 17 -12 33 -11 38 1 4 -2 7 -8 7 -6 0 -9 3 -8 8 3 12 -24 62 -34 62
-4 0 -7 6 -6 13 2 6 -3 11 -10 9 -8 -1 -11 2 -8 7 4 5 -17 30 -46 55 -75 65
-170 93 -253 73 -22 -5 -46 -10 -52 -10 -7 0 -13 -4 -13 -9 0 -5 -4 -7 -9 -3
-5 3 -17 -2 -25 -11 -9 -8 -16 -13 -16 -9 0 7 -40 -18 -107 -68 -29 -22 -50
-43 -47 -48 3 -5 0 -8 -8 -7 -7 2 -12 -3 -10 -10 1 -6 -1 -11 -5 -10 -5 2 -8
1 -9 -2 0 -3 -17 -23 -37 -44 -20 -21 -37 -45 -37 -52 0 -8 -4 -14 -8 -14 -9
0 -82 -148 -86 -172 -1 -7 -5 -19 -10 -26 -4 -7 -5 -16 -2 -19 3 -3 2 -11 -3
-17 -12 -15 -39 -151 -49 -246 -9 -87 -8 -154 3 -260 11 -106 10 -104 17 -115
3 -6 4 -18 3 -27 -2 -10 0 -18 4 -18 4 0 7 -8 7 -17 1 -16 9 -56 18 -88 13
-49 49 -162 54 -170 4 -5 7 -14 8 -20 11 -59 207 -475 225 -475 5 0 8 -4 5 -8
-3 -5 2 -18 12 -28 9 -11 18 -26 20 -33 1 -7 9 -20 17 -28 8 -8 15 -18 15 -23
0 -5 11 -21 25 -35 14 -14 23 -25 20 -25 -9 0 49 -74 99 -129 23 -24 49 -52
59 -62 9 -11 14 -19 10 -19 -5 0 0 -7 10 -14 10 -8 18 -17 18 -20 -2 -17 1
-24 26 -51 25 -27 38 -55 26 -55 -10 0 -78 44 -85 54 -4 6 -8 8 -8 4 0 -5 -10
1 -22 12 -13 10 -26 19 -31 19 -4 0 -20 12 -35 26 -15 14 -30 25 -34 25 -3 0
-20 12 -37 26 -17 14 -31 22 -31 18 0 -4 -8 3 -19 14 -10 12 -22 22 -25 22 -4
0 -13 6 -20 12 -7 7 -28 24 -46 38 -18 14 -38 30 -44 35 -6 6 -31 26 -56 45
-47 36 -82 67 -183 160 -33 30 -63 55 -67 55 -5 0 -12 4 -17 9 -5 6 -2 6 7 1
13 -8 13 -6 1 8 -7 9 -17 14 -22 11 -5 -3 -8 -2 -7 3 2 4 -7 18 -19 31 -13 12
-23 19 -23 16 0 -4 -9 4 -19 17 -10 13 -47 53 -82 89 -119 122 -156 169 -157
197 -2 51 -35 220 -49 253 -3 8 -7 22 -8 31 -2 17 -24 106 -32 129 -3 8 -7 22
-8 30 -1 8 -5 31 -10 50 -4 19 -9 44 -11 55 -8 49 -14 82 -19 103 -7 29 -12
56 -26 122 -6 30 -14 59 -17 65 -3 5 -7 16 -8 25 -3 25 -37 135 -43 140 -3 3
-6 10 -6 15 0 14 -42 124 -59 155 -7 14 -16 37 -20 53 -3 15 -11 27 -17 27 -6
0 -7 5 -4 10 3 6 1 10 -4 10 -6 0 -10 3 -9 8 4 12 -24 72 -33 72 -5 0 -6 7 -3
15 4 8 1 15 -5 15 -6 0 -11 6 -11 14 0 8 -6 21 -12 28 -7 7 -14 20 -16 27 -2
8 -23 45 -48 83 -24 38 -44 73 -44 77 0 5 -3 11 -7 13 -5 2 -27 28 -50 59 -67
90 -232 248 -233 222 0 -4 -5 0 -11 10 -5 9 -16 17 -23 17 -8 0 -19 7 -26 15
-7 8 -16 12 -21 9 -5 -3 -9 0 -9 6 0 7 -6 10 -12 7 -7 -2 -20 1 -28 9 -14 12
-35 18 -100 30 -50 9 -156 10 -200 2z m1521 -2385 c13 -16 12 -17 -3 -4 -10 7
-18 15 -18 17 0 8 8 3 21 -13z"/>
</g>
</svg>
